# xmcd CD database file
#
# Track frame offsets:
#	183
#	10600
#	21220
#	40515
#	58260
#	73693
#	89258
#	103853
#	123898
#	141540
#	153170
#	173210
#	195050
#	221780
#
# Disc length: 3115 seconds
#
# Revision: 1
# Processed by: cddbd v1.5.1PL0 Copyright (c) Steve Scherf et al.
# Submitted via: CDex 1.51
#
DISCID=b90c290e
DTITLE=Louis Armstrong - What a Wonderful World
DYEAR=1988
DGENRE=Jazz
TTITLE0=What a Wonderful World
TTITLE1=Hello Dolly
TTITLE2=Blueberry Hill
TTITLE3=Cabaret
TTITLE4=On The Sunny Side Of The Street
TTITLE5=Black And Blue
TTITLE6=When The Saints Go Marching In
TTITLE7=The Faithful Hussar
TTITLE8=Mack The Knife
TTITLE9=When It's Sleepy Time Down South
TTITLE10=Indiana
TTITLE11=The Gypsy
TTITLE12=Basin Street Blues
TTITLE13=Tiger Rag
EXTD=YEAR: 1988
EXTT0=
EXTT1=
EXTT2=
EXTT3=
EXTT4=
EXTT5=
EXTT6=
EXTT7=
EXTT8=
EXTT9=
EXTT10=
EXTT11=
EXTT12=
EXTT13=
PLAYORDER=
